<mxfile host="app.diagrams.net" agent="Mozilla/5.0 (X11; Linux x86_64; rv:137.0) Gecko/20100101 Firefox/137.0" version="26.0.15">
  <diagram name="Page-1" id="Ru_C6dewD2kKkyqxHlR9">
    <mxGraphModel dx="1434" dy="843" grid="1" gridSize="10" guides="1" tooltips="1" connect="1" arrows="0" fold="1" page="1" pageScale="1" pageWidth="850" pageHeight="1100" math="0" shadow="0">
      <root>
        <mxCell id="0" />
        <mxCell id="1" parent="0" />
        <mxCell id="Cfh7iHXlZL_Zqh1E1O3E-45" value="" style="rounded=0;whiteSpace=wrap;html=1;fillColor=none;strokeWidth=5;labelBackgroundColor=none;strokeColor=#028090;fontColor=#E4FDE1;" vertex="1" parent="1">
          <mxGeometry x="45" y="480" width="760" height="399" as="geometry" />
        </mxCell>
        <mxCell id="Cfh7iHXlZL_Zqh1E1O3E-46" value="" style="fontColor=#E4FDE1;verticalAlign=top;verticalLabelPosition=bottom;labelPosition=center;align=center;html=1;outlineConnect=0;fillColor=#F45B69;strokeColor=#028090;gradientDirection=north;strokeWidth=2;shape=mxgraph.networks.router;labelBackgroundColor=none;" vertex="1" parent="1">
          <mxGeometry x="275" y="630" width="100" height="30" as="geometry" />
        </mxCell>
        <mxCell id="Cfh7iHXlZL_Zqh1E1O3E-47" style="edgeStyle=orthogonalEdgeStyle;shape=connector;rounded=0;orthogonalLoop=1;jettySize=auto;html=1;exitX=0.5;exitY=1;exitDx=0;exitDy=0;exitPerimeter=0;strokeColor=#028090;strokeWidth=3;align=center;verticalAlign=middle;fontFamily=Helvetica;fontSize=11;fontColor=default;labelBackgroundColor=none;startFill=0;endArrow=none;" edge="1" parent="1" source="Cfh7iHXlZL_Zqh1E1O3E-48" target="Cfh7iHXlZL_Zqh1E1O3E-51">
          <mxGeometry relative="1" as="geometry" />
        </mxCell>
        <mxCell id="Cfh7iHXlZL_Zqh1E1O3E-48" value="" style="fontColor=#E4FDE1;verticalAlign=top;verticalLabelPosition=bottom;labelPosition=center;align=center;html=1;outlineConnect=0;fillColor=#F45B69;strokeColor=#028090;gradientDirection=north;strokeWidth=2;shape=mxgraph.networks.router;labelBackgroundColor=none;" vertex="1" parent="1">
          <mxGeometry x="475" y="630" width="100" height="30" as="geometry" />
        </mxCell>
        <mxCell id="Cfh7iHXlZL_Zqh1E1O3E-49" value="" style="fontColor=#E4FDE1;verticalAlign=top;verticalLabelPosition=bottom;labelPosition=center;align=center;html=1;outlineConnect=0;fillColor=#F45B69;strokeColor=#028090;gradientDirection=north;strokeWidth=2;shape=mxgraph.networks.router;labelBackgroundColor=none;" vertex="1" parent="1">
          <mxGeometry x="275" y="790" width="100" height="30" as="geometry" />
        </mxCell>
        <mxCell id="Cfh7iHXlZL_Zqh1E1O3E-50" style="edgeStyle=orthogonalEdgeStyle;shape=connector;rounded=0;orthogonalLoop=1;jettySize=auto;html=1;exitX=0;exitY=0.5;exitDx=0;exitDy=0;exitPerimeter=0;strokeColor=#028090;strokeWidth=3;align=center;verticalAlign=middle;fontFamily=Helvetica;fontSize=11;fontColor=default;labelBackgroundColor=none;startFill=0;endArrow=none;" edge="1" parent="1" source="Cfh7iHXlZL_Zqh1E1O3E-51" target="Cfh7iHXlZL_Zqh1E1O3E-49">
          <mxGeometry relative="1" as="geometry" />
        </mxCell>
        <mxCell id="Cfh7iHXlZL_Zqh1E1O3E-51" value="" style="fontColor=#E4FDE1;verticalAlign=top;verticalLabelPosition=bottom;labelPosition=center;align=center;html=1;outlineConnect=0;fillColor=#F45B69;strokeColor=#028090;gradientDirection=north;strokeWidth=2;shape=mxgraph.networks.router;labelBackgroundColor=none;" vertex="1" parent="1">
          <mxGeometry x="475" y="790" width="100" height="30" as="geometry" />
        </mxCell>
        <mxCell id="Cfh7iHXlZL_Zqh1E1O3E-52" style="edgeStyle=orthogonalEdgeStyle;rounded=0;orthogonalLoop=1;jettySize=auto;html=1;exitX=0.5;exitY=0;exitDx=0;exitDy=0;exitPerimeter=0;entryX=0.5;entryY=1;entryDx=0;entryDy=0;entryPerimeter=0;endArrow=none;startFill=0;labelBackgroundColor=none;strokeColor=#028090;fontColor=default;strokeWidth=3;" edge="1" parent="1" source="Cfh7iHXlZL_Zqh1E1O3E-49" target="Cfh7iHXlZL_Zqh1E1O3E-46">
          <mxGeometry relative="1" as="geometry" />
        </mxCell>
        <mxCell id="Cfh7iHXlZL_Zqh1E1O3E-53" style="edgeStyle=orthogonalEdgeStyle;shape=connector;rounded=0;orthogonalLoop=1;jettySize=auto;html=1;exitX=1;exitY=0.5;exitDx=0;exitDy=0;exitPerimeter=0;entryX=0;entryY=0.5;entryDx=0;entryDy=0;entryPerimeter=0;strokeColor=#028090;strokeWidth=3;align=center;verticalAlign=middle;fontFamily=Helvetica;fontSize=11;fontColor=default;labelBackgroundColor=none;startFill=0;endArrow=none;" edge="1" parent="1" source="Cfh7iHXlZL_Zqh1E1O3E-46" target="Cfh7iHXlZL_Zqh1E1O3E-48">
          <mxGeometry relative="1" as="geometry" />
        </mxCell>
        <mxCell id="Cfh7iHXlZL_Zqh1E1O3E-54" value="" style="fontColor=#E4FDE1;verticalAlign=top;verticalLabelPosition=bottom;labelPosition=center;align=center;html=1;outlineConnect=0;fillColor=#F45B69;strokeColor=#028090;gradientDirection=north;strokeWidth=2;shape=mxgraph.networks.pc;fontFamily=Helvetica;fontSize=11;labelBackgroundColor=none;" vertex="1" parent="1">
          <mxGeometry x="105" y="770" width="100" height="70" as="geometry" />
        </mxCell>
        <mxCell id="Cfh7iHXlZL_Zqh1E1O3E-55" value="" style="fontColor=#E4FDE1;verticalAlign=top;verticalLabelPosition=bottom;labelPosition=center;align=center;html=1;outlineConnect=0;fillColor=#F45B69;strokeColor=#028090;gradientDirection=north;strokeWidth=2;shape=mxgraph.networks.pc;fontFamily=Helvetica;fontSize=11;labelBackgroundColor=none;" vertex="1" parent="1">
          <mxGeometry x="645" y="770" width="100" height="70" as="geometry" />
        </mxCell>
        <mxCell id="Cfh7iHXlZL_Zqh1E1O3E-56" style="edgeStyle=orthogonalEdgeStyle;rounded=0;orthogonalLoop=1;jettySize=auto;html=1;exitX=0;exitY=0.5;exitDx=0;exitDy=0;exitPerimeter=0;entryX=1;entryY=0.5;entryDx=0;entryDy=0;entryPerimeter=0;strokeColor=#028090;fontColor=#E4FDE1;fillColor=#F45B69;strokeWidth=3;endArrow=none;startFill=0;" edge="1" parent="1" source="Cfh7iHXlZL_Zqh1E1O3E-55" target="Cfh7iHXlZL_Zqh1E1O3E-51">
          <mxGeometry relative="1" as="geometry" />
        </mxCell>
        <mxCell id="Cfh7iHXlZL_Zqh1E1O3E-57" style="edgeStyle=orthogonalEdgeStyle;shape=connector;rounded=0;orthogonalLoop=1;jettySize=auto;html=1;exitX=1;exitY=0.5;exitDx=0;exitDy=0;exitPerimeter=0;entryX=0;entryY=0.5;entryDx=0;entryDy=0;entryPerimeter=0;strokeColor=#028090;strokeWidth=3;align=center;verticalAlign=middle;fontFamily=Helvetica;fontSize=11;fontColor=#E4FDE1;labelBackgroundColor=default;startFill=0;endArrow=none;fillColor=#F45B69;" edge="1" parent="1" source="Cfh7iHXlZL_Zqh1E1O3E-54" target="Cfh7iHXlZL_Zqh1E1O3E-49">
          <mxGeometry relative="1" as="geometry" />
        </mxCell>
        <mxCell id="Cfh7iHXlZL_Zqh1E1O3E-58" value="" style="shape=image;verticalLabelPosition=bottom;labelBackgroundColor=default;verticalAlign=top;aspect=fixed;imageAspect=0;image=data:image/png,iVBORw0KGgoAAAANSUhEUgAAALsAAACiCAYAAAAZSbw5AAAACXBIWXMAAAsTAAALEwEAmpwYAAAAAXNSR0IArs4c6QAAAARnQU1BAACxjwv8YQUAAA2qSURBVHgB7Z09cBTJGYa/nkWwnEG1IZmXKid2CUpk58Q3cuTMkLgEyemyyw4yOzC7iyNHB5kdIRK02AEicjmS1okvQ1cnuy5jL7tQBxIIJE1ffyPN3mq0P/PTP1/Pfk+CQJRmtXr1Tvc73W8L8JT5261XEqAJjE36tXdwY2e9swMeEoCHXF5urbDQndA8rMsvwFMEeEbjZqsRXYSXLHZn7BxIuLHf7fTBM7xz9ugjuMtCd0pjLhAt8BCvnL2x3GoeCXgFjHOkhKXdbmcTPMIrZz/y1FGqiHJJ734WNfCES8utUL3BD4GhgYDm3LXf9g+2N78GT/DG2QMBj4EhRQDRQwwMwBO8EDtHjWRp+BRFkp+g4qQ0ErDBYieLN1EkeWePAo4aidOYAz+GmKSdnaNGf/AhiiTt7Bw1+oMKEL4E4pCNHnFSqv5oA+MLV+q/Cn94/7/eV0AUss4uhH8PLWYdWYMW5SiSpNjnb7d4UuonjcOLdIee5CaoHDX6j4oir1KMIsk5O05KWeh+QzWKJOXsHDVWB4pRJClnPxKC179UBEFwLROZ6DGOGgXcBaYqNM4vfAIftns9IAIZZ+eosXoIIe5SiiJJiH3+TqvNk9JKQiqKdD5BjSelAbwECd6si2byQWWy6tzZ4/UvLPRKQ2ULn1Nn56hxhjiCW2/+0VkHhzh1dnxSCsxsUIMvXU9WnYmdt9rNHM7bxJwMY7jVa2ZxuoXPibNzq9fM4rRNzLqz86SUcRVFWnd23mrHuIoira6N4VYvJsZRm5hVZ+dWLybBRZuYNbFz1MiksN4mZmWCylvtmDFYjSKtODu3ejFjsNomZtzZOWpkpmErijTu7Bw1MtOw1SZmNHrkVi8mI1baxIw6O2+1Y7Jio03MmNg5amRyYjyKNDJBrXzUKGCHd1eZwWSbmBFnr3Krl5SyXYvghnKJPjDaMRlFanf2KkeNKPTd7oMOfvyzO61F5RQb7PD6MRVFanf2IyHIl9IXYVjoyN7TzlYEsBQPaRitmGoT0yr246hR3oSKEUGwMiz0BBa8MZqXlu9rT/K0ir2KUSMKfW+t9WTc51nwZjDRJqZN7FVs9Zom9AQUvIzgFriimr9o2tvEtDxBPYkacZxVh4qQVegJH7Z7/QsL4XdKeLaHcX0V1/06CMSOShtCqBDq+/n4/ELYw/cWNKDF2avW6pVX6Alvup1V9T58BvZAoS9hLr37tN2RQrShYujcwlfa2dHV1fBlFSpCUaEnKBfasuTwA6EPrv3NZu/8dZw+VMjhBTR1uXtpZ69Sq1dZoSdYcPgzQk+oosNjFKljslrK2U8OEFiBCqBL6Ano8IZcdqzQB9eunsM3onNyv+zBBqXEXr8WPscXAp6jW+gJBkQ3VegGr+0UFUUufvSL8O/73/b2oSCFxX4SNXr/AMmU0BM0ii6z0A1cmwJ1eV5cUd/TCyhIIbHHUSPAc/AZlU0roX9uUugJGkSXW+gar02JxTKT1UJin7u+hOtfFsFXYqHD0t5a+99giRKiKyx0Ddcmh/oemkrshQwqt9hxtZ+Q8DfwlUTo6qknWKaA6EoLvcS1aVKiTSy32C8uhP8FXyelDoWekEN02oRe4NqkESDDIpPVXGL3OmokIPSEDKLTLvQc1/aBepEoMrPYcVIKx+tf/HN1QkJPQNHVr31yVb249NzHmNCHr+274DGKDBbCZ4fbvcyL4DI/QfW21Yug0BNerz1YUbfk4cmWcaEnVOBJa+42sUzOfhI1roFvEBZ6wvvt3vqJwzdsCT3Be4fPuW4mk7N72erlgdAT0OFr79ycNeS7w+dZFTnV2b1s9fJI6AllHoOXxWuHV+6etU1sqti9W/9iWOjx6rvF8EqeiZEPeC34AD7OEkVOHMZ42OrVP4jghkmhRxdhY07ARh3TqYrh8ZAmU5vY2N4YD1u9jCYZJ+/Hc/nTMom+7QmlLS7dabeElG3wjGltYmOd3bNWLxtC35Cn1wM12eFpMS2KHDlm92yrnS2hN0d9uibgpnq48YLH8ASYEkWOdHaPWr1cCj2BHZ4Qk9rEzjj7yfqXPwJ9KAh98N/Z4cnQGBdFnnF2T1q9KAk9wZnDz9++vzq//Oc2GMI3hx93sMEpZ/dkq51Rocfr9QH+VXBybt3hUegSxKfKpcL6wm/E++3/bIIBPHP4ejQn6h+2N09tzhmI/WRSimN1yg+QjAs9rqEGuALFsSb4gdATWPADsE1s7pfhi4P/975P/m0wjPEgarQjdD3NZsaHNJdvt26eEvoJUgQtHtIcE9ROn8IXO7sHUaNPQk8w6vAqXvt2rMuywx+TiiJjsasXXvbWbRIfhZ5gVvCTRMeCj1GBC27he4LrZmonqxo/B5r4LPQEFrxbBm1itfr1EEN4iq5uX+jHPecmardZ8A7BLXxK7H8NIhDrQA8XQl+VkXgI5jA6aZ00cZz5SauEWOPBufPyEbFjDp0I/c3TzmdgHha8ffoHAB38oLa/1ds/fy38Tn28DO5xKnQ1cw9xQgNm4SGNRaSUD992H8T9kHEagzHWhWtLIbjN2Z07uiWxIyx4O/R3uw8GZ10NHiqp34AOuKPKQ5dxGB/SKMHdG/W5WRnSRBC0h/8+WC6AwbsazjTwMSvYhYzQLTp7glGHf7/d+2rskTcVd3gZwfpet/2n4X87terx3AU1kLd7zOAsOnoaow4/6cibKjv8oTh7Vzsl9p3Vzo4Eo/HbAPUbv2WyK8UToSew4HUiYXWUrs6sZz8Z6/XBICj04B0s7ax3jNxFPBN6AgteD4OoMc3IbXmRwZPeWOgTYcGXBCel40YLI8W+2+1sKoVsgmZY6JkwL3iAW6PmZhUQfH/SsUFjqzRqUmoVCAs9F2YFv9ZZx9a0ygk+Cu5O+vRYse+oW4EE0DJZZaEXIha8jsNuR4GtaZUSvJqUvnnWmniS3sT6Ox1RpBOhA6x7LvSEJtbtseCnM25SOsxEsWMUKeT0LzIJdXdoHFwMfg8GmLAePZz/Q+suVABsITMlePya6qniyrj1/CYFj7vjlLZC0ACOQLJE2AIyMH+n9VLKckdBqhe0dSjhlq5cPcvGi7zXvLTcbglBs+NQ9x3y0nIrDAQ8zrLvWMio87r7lzZoIC6H/Sg+xeULTZtmMj+YDCADUTR6jUUe1A9rUY1BX12+035cduKVdYeRzmu6RpfDo8gv325viBy9OLocHnfFqe8BjbOla3fYpKgxTSZnR/ANUt92CLoQYjU6kI/2/pmvXrrUVjp1TRnJJ8fR6lkoO/sANfGuvYV7eR0eRS4EnqBS/GdYxOENOPkwfZUsXc36nzOLHcdYRwG81P2C8fZ8JIJVEUVfjxMhEv+wAvEpSLkC5VFJk1hXX+vFuX3YSoTjhdiP6aOjzb2LXkwSfTxUCSDULLSp18a76BwuABNY3iQXTe3xjaLa4t6z+5kP/80sdsRGbzeKX93m1Jso+vHf1ZslhbrdGtwUPbimiG/rTfCI+LXjeyV/SlRsvGeDa6d+VuqPhpX+IYwau/kSt1xib6y0Gkcf4JXpN5FhpjHt4IFR5DrhGrfw1RfC9+rD3wHDOEKq0UWy1S4PuZw9QftklWGyk2tSOkym6DGN4y18zAyT3mqXh0LOjih3f65kfxMYxh6FXR0p5OxITcp7lrfwMTMOPimFEhQW+/GqSDtb+Bhm3Fa7PBQWO0KwTYypImoEkWVV4zRKif14g3b5dTMMMwkZyYc6FhAWnqAOw1EkY5BSk9JhSjl7AkeRjCnKRI1pcj1BHYfDNjGmwoxq9SqDFmdHHLSJMRVnVKtXGbSJ3WabGDMDaIga02gTO8JRJKOJvo6oMY1WsaO7m2wTY2aDPFvt8qAlekzDUSRTAm1RYxqtzp4QCckPmphC6Iwa02iJHtMcfNP7nqNIJjdqUrrbbRt7ZmPE2RGOIpm8mJiUDmPE2RHewsfkAVu93nY7z8Agxpwdeb3WechRJJOB/qGER2AYo2JHOIpkpmEqakxjJHpMw1EkMwFjUWMa486O6D7YgKkOEoIVsISxCeow+9u9HWrHfDMEOI4ajY/VE6w4O4LrZjiKZIYxHTWmseLsCEeRzDBFW73KYM3ZEYwiTZzCx3hH/9y+sDZ8SbAqdoS38DEYNZo6Y2sSVqLHNNwmNtNYixrTWHd2hNvEZpeyrV5lcCJ2bhObUQxstcuDE7EjvIVvxtDU6lUGZ2KPN2hL4MnqjKCr1asMTiaow/C6mZnA2aR0GGfOnsBRZPUxudUuD9aeoI4D28QuLIRNdY8pdYI2QxM1VN3c67ZJ7El27uxIrQ4cRVaUQ6Czn4GE2LlNrKI4jhrTkBA7wlFk5ei7jhrTkBE7t4lVi4hA1JjGefSYhqPISkAiakxDxtkTuE3Mf6hEjWmcR49puE3Mcwy3epWBnLMj3CbmL9QmpcOQc3aEt/D5iY1WrzKQdHaE28S8w0qrVxnIih3hKNIfbLV6lYFc9JiGo0gvIBk1piHt7Ai3idHHZqtXGUhOUIfhNjHiWG71KgN5Z0e4TYwulKPGNOSdHeEokiYuWr3K4IWzI9wmRg4nrV5l8EbsCG/ho4OrVq8ykI8e03CbGAm8iBrTeOXsCLeJucdlq1cZvBM7t4k5hthWuzx4J3aEt/A5gkCrVxm8G7MnNJZbzUMR/BwYa0gR/bD3tLMFnvIj1aLEUmLJ2X8AAAAASUVORK5CYII=;" vertex="1" parent="1">
          <mxGeometry x="135" y="778" width="62.34" height="54" as="geometry" />
        </mxCell>
        <mxCell id="Cfh7iHXlZL_Zqh1E1O3E-59" value="" style="shape=image;verticalLabelPosition=bottom;labelBackgroundColor=default;verticalAlign=top;aspect=fixed;imageAspect=0;image=data:image/png,iVBORw0KGgoAAAANSUhEUgAAALsAAACiCAYAAAAZSbw5AAAACXBIWXMAAAsTAAALEwEAmpwYAAAAAXNSR0IArs4c6QAAAARnQU1BAACxjwv8YQUAAA2qSURBVHgB7Z09cBTJGYa/nkWwnEG1IZmXKid2CUpk58Q3cuTMkLgEyemyyw4yOzC7iyNHB5kdIRK02AEicjmS1okvQ1cnuy5jL7tQBxIIJE1ffyPN3mq0P/PTP1/Pfk+CQJRmtXr1Tvc73W8L8JT5261XEqAJjE36tXdwY2e9swMeEoCHXF5urbDQndA8rMsvwFMEeEbjZqsRXYSXLHZn7BxIuLHf7fTBM7xz9ugjuMtCd0pjLhAt8BCvnL2x3GoeCXgFjHOkhKXdbmcTPMIrZz/y1FGqiHJJ734WNfCES8utUL3BD4GhgYDm3LXf9g+2N78GT/DG2QMBj4EhRQDRQwwMwBO8EDtHjWRp+BRFkp+g4qQ0ErDBYieLN1EkeWePAo4aidOYAz+GmKSdnaNGf/AhiiTt7Bw1+oMKEL4E4pCNHnFSqv5oA+MLV+q/Cn94/7/eV0AUss4uhH8PLWYdWYMW5SiSpNjnb7d4UuonjcOLdIee5CaoHDX6j4oir1KMIsk5O05KWeh+QzWKJOXsHDVWB4pRJClnPxKC179UBEFwLROZ6DGOGgXcBaYqNM4vfAIftns9IAIZZ+eosXoIIe5SiiJJiH3+TqvNk9JKQiqKdD5BjSelAbwECd6si2byQWWy6tzZ4/UvLPRKQ2ULn1Nn56hxhjiCW2/+0VkHhzh1dnxSCsxsUIMvXU9WnYmdt9rNHM7bxJwMY7jVa2ZxuoXPibNzq9fM4rRNzLqz86SUcRVFWnd23mrHuIoira6N4VYvJsZRm5hVZ+dWLybBRZuYNbFz1MiksN4mZmWCylvtmDFYjSKtODu3ejFjsNomZtzZOWpkpmErijTu7Bw1MtOw1SZmNHrkVi8mI1baxIw6O2+1Y7Jio03MmNg5amRyYjyKNDJBrXzUKGCHd1eZwWSbmBFnr3Krl5SyXYvghnKJPjDaMRlFanf2KkeNKPTd7oMOfvyzO61F5RQb7PD6MRVFanf2IyHIl9IXYVjoyN7TzlYEsBQPaRitmGoT0yr246hR3oSKEUGwMiz0BBa8MZqXlu9rT/K0ir2KUSMKfW+t9WTc51nwZjDRJqZN7FVs9Zom9AQUvIzgFriimr9o2tvEtDxBPYkacZxVh4qQVegJH7Z7/QsL4XdKeLaHcX0V1/06CMSOShtCqBDq+/n4/ELYw/cWNKDF2avW6pVX6Alvup1V9T58BvZAoS9hLr37tN2RQrShYujcwlfa2dHV1fBlFSpCUaEnKBfasuTwA6EPrv3NZu/8dZw+VMjhBTR1uXtpZ69Sq1dZoSdYcPgzQk+oosNjFKljslrK2U8OEFiBCqBL6Ano8IZcdqzQB9eunsM3onNyv+zBBqXEXr8WPscXAp6jW+gJBkQ3VegGr+0UFUUufvSL8O/73/b2oSCFxX4SNXr/AMmU0BM0ii6z0A1cmwJ1eV5cUd/TCyhIIbHHUSPAc/AZlU0roX9uUugJGkSXW+gar02JxTKT1UJin7u+hOtfFsFXYqHD0t5a+99giRKiKyx0Ddcmh/oemkrshQwqt9hxtZ+Q8DfwlUTo6qknWKaA6EoLvcS1aVKiTSy32C8uhP8FXyelDoWekEN02oRe4NqkESDDIpPVXGL3OmokIPSEDKLTLvQc1/aBepEoMrPYcVIKx+tf/HN1QkJPQNHVr31yVb249NzHmNCHr+274DGKDBbCZ4fbvcyL4DI/QfW21Yug0BNerz1YUbfk4cmWcaEnVOBJa+42sUzOfhI1roFvEBZ6wvvt3vqJwzdsCT3Be4fPuW4mk7N72erlgdAT0OFr79ycNeS7w+dZFTnV2b1s9fJI6AllHoOXxWuHV+6etU1sqti9W/9iWOjx6rvF8EqeiZEPeC34AD7OEkVOHMZ42OrVP4jghkmhRxdhY07ARh3TqYrh8ZAmU5vY2N4YD1u9jCYZJ+/Hc/nTMom+7QmlLS7dabeElG3wjGltYmOd3bNWLxtC35Cn1wM12eFpMS2KHDlm92yrnS2hN0d9uibgpnq48YLH8ASYEkWOdHaPWr1cCj2BHZ4Qk9rEzjj7yfqXPwJ9KAh98N/Z4cnQGBdFnnF2T1q9KAk9wZnDz9++vzq//Oc2GMI3hx93sMEpZ/dkq51Rocfr9QH+VXBybt3hUegSxKfKpcL6wm/E++3/bIIBPHP4ejQn6h+2N09tzhmI/WRSimN1yg+QjAs9rqEGuALFsSb4gdATWPADsE1s7pfhi4P/975P/m0wjPEgarQjdD3NZsaHNJdvt26eEvoJUgQtHtIcE9ROn8IXO7sHUaNPQk8w6vAqXvt2rMuywx+TiiJjsasXXvbWbRIfhZ5gVvCTRMeCj1GBC27he4LrZmonqxo/B5r4LPQEFrxbBm1itfr1EEN4iq5uX+jHPecmardZ8A7BLXxK7H8NIhDrQA8XQl+VkXgI5jA6aZ00cZz5SauEWOPBufPyEbFjDp0I/c3TzmdgHha8ffoHAB38oLa/1ds/fy38Tn28DO5xKnQ1cw9xQgNm4SGNRaSUD992H8T9kHEagzHWhWtLIbjN2Z07uiWxIyx4O/R3uw8GZ10NHiqp34AOuKPKQ5dxGB/SKMHdG/W5WRnSRBC0h/8+WC6AwbsazjTwMSvYhYzQLTp7glGHf7/d+2rskTcVd3gZwfpet/2n4X87terx3AU1kLd7zOAsOnoaow4/6cibKjv8oTh7Vzsl9p3Vzo4Eo/HbAPUbv2WyK8UToSew4HUiYXWUrs6sZz8Z6/XBICj04B0s7ax3jNxFPBN6AgteD4OoMc3IbXmRwZPeWOgTYcGXBCel40YLI8W+2+1sKoVsgmZY6JkwL3iAW6PmZhUQfH/SsUFjqzRqUmoVCAs9F2YFv9ZZx9a0ygk+Cu5O+vRYse+oW4EE0DJZZaEXIha8jsNuR4GtaZUSvJqUvnnWmniS3sT6Ox1RpBOhA6x7LvSEJtbtseCnM25SOsxEsWMUKeT0LzIJdXdoHFwMfg8GmLAePZz/Q+suVABsITMlePya6qniyrj1/CYFj7vjlLZC0ACOQLJE2AIyMH+n9VLKckdBqhe0dSjhlq5cPcvGi7zXvLTcbglBs+NQ9x3y0nIrDAQ8zrLvWMio87r7lzZoIC6H/Sg+xeULTZtmMj+YDCADUTR6jUUe1A9rUY1BX12+035cduKVdYeRzmu6RpfDo8gv325viBy9OLocHnfFqe8BjbOla3fYpKgxTSZnR/ANUt92CLoQYjU6kI/2/pmvXrrUVjp1TRnJJ8fR6lkoO/sANfGuvYV7eR0eRS4EnqBS/GdYxOENOPkwfZUsXc36nzOLHcdYRwG81P2C8fZ8JIJVEUVfjxMhEv+wAvEpSLkC5VFJk1hXX+vFuX3YSoTjhdiP6aOjzb2LXkwSfTxUCSDULLSp18a76BwuABNY3iQXTe3xjaLa4t6z+5kP/80sdsRGbzeKX93m1Jso+vHf1ZslhbrdGtwUPbimiG/rTfCI+LXjeyV/SlRsvGeDa6d+VuqPhpX+IYwau/kSt1xib6y0Gkcf4JXpN5FhpjHt4IFR5DrhGrfw1RfC9+rD3wHDOEKq0UWy1S4PuZw9QftklWGyk2tSOkym6DGN4y18zAyT3mqXh0LOjih3f65kfxMYxh6FXR0p5OxITcp7lrfwMTMOPimFEhQW+/GqSDtb+Bhm3Fa7PBQWO0KwTYypImoEkWVV4zRKif14g3b5dTMMMwkZyYc6FhAWnqAOw1EkY5BSk9JhSjl7AkeRjCnKRI1pcj1BHYfDNjGmwoxq9SqDFmdHHLSJMRVnVKtXGbSJ3WabGDMDaIga02gTO8JRJKOJvo6oMY1WsaO7m2wTY2aDPFvt8qAlekzDUSRTAm1RYxqtzp4QCckPmphC6Iwa02iJHtMcfNP7nqNIJjdqUrrbbRt7ZmPE2RGOIpm8mJiUDmPE2RHewsfkAVu93nY7z8Agxpwdeb3WechRJJOB/qGER2AYo2JHOIpkpmEqakxjJHpMw1EkMwFjUWMa486O6D7YgKkOEoIVsISxCeow+9u9HWrHfDMEOI4ajY/VE6w4O4LrZjiKZIYxHTWmseLsCEeRzDBFW73KYM3ZEYwiTZzCx3hH/9y+sDZ8SbAqdoS38DEYNZo6Y2sSVqLHNNwmNtNYixrTWHd2hNvEZpeyrV5lcCJ2bhObUQxstcuDE7EjvIVvxtDU6lUGZ2KPN2hL4MnqjKCr1asMTiaow/C6mZnA2aR0GGfOnsBRZPUxudUuD9aeoI4D28QuLIRNdY8pdYI2QxM1VN3c67ZJ7El27uxIrQ4cRVaUQ6Czn4GE2LlNrKI4jhrTkBA7wlFk5ei7jhrTkBE7t4lVi4hA1JjGefSYhqPISkAiakxDxtkTuE3Mf6hEjWmcR49puE3Mcwy3epWBnLMj3CbmL9QmpcOQc3aEt/D5iY1WrzKQdHaE28S8w0qrVxnIih3hKNIfbLV6lYFc9JiGo0gvIBk1piHt7Ai3idHHZqtXGUhOUIfhNjHiWG71KgN5Z0e4TYwulKPGNOSdHeEokiYuWr3K4IWzI9wmRg4nrV5l8EbsCG/ho4OrVq8ykI8e03CbGAm8iBrTeOXsCLeJucdlq1cZvBM7t4k5hthWuzx4J3aEt/A5gkCrVxm8G7MnNJZbzUMR/BwYa0gR/bD3tLMFnvIj1aLEUmLJ2X8AAAAASUVORK5CYII=;" vertex="1" parent="1">
          <mxGeometry x="675" y="778" width="62.34" height="54" as="geometry" />
        </mxCell>
        <mxCell id="Cfh7iHXlZL_Zqh1E1O3E-60" value="&lt;font style=&quot;font-size: 18px;&quot;&gt;Router A&lt;/font&gt;" style="text;html=1;align=center;verticalAlign=middle;whiteSpace=wrap;rounded=0;fontFamily=Helvetica;fontSize=11;fontColor=#000000;labelBackgroundColor=default;fillColor=none;" vertex="1" parent="1">
          <mxGeometry x="345" y="664.5" width="70" height="30" as="geometry" />
        </mxCell>
        <mxCell id="Cfh7iHXlZL_Zqh1E1O3E-61" value="&lt;font style=&quot;font-size: 18px;&quot;&gt;Router B&lt;/font&gt;" style="text;html=1;align=center;verticalAlign=middle;whiteSpace=wrap;rounded=0;fontFamily=Helvetica;fontSize=11;fontColor=#000000;labelBackgroundColor=default;fillColor=none;" vertex="1" parent="1">
          <mxGeometry x="345" y="760" width="70" height="30" as="geometry" />
        </mxCell>
        <mxCell id="Cfh7iHXlZL_Zqh1E1O3E-62" value="&lt;font style=&quot;font-size: 18px;&quot;&gt;Router C&lt;/font&gt;" style="text;html=1;align=center;verticalAlign=middle;whiteSpace=wrap;rounded=0;fontFamily=Helvetica;fontSize=11;fontColor=#000000;labelBackgroundColor=default;fillColor=none;" vertex="1" parent="1">
          <mxGeometry x="445" y="664.5" width="70" height="30" as="geometry" />
        </mxCell>
        <mxCell id="Cfh7iHXlZL_Zqh1E1O3E-63" value="&lt;font style=&quot;font-size: 18px;&quot;&gt;Router D&lt;/font&gt;" style="text;html=1;align=center;verticalAlign=middle;whiteSpace=wrap;rounded=0;fontFamily=Helvetica;fontSize=11;fontColor=#000000;labelBackgroundColor=default;fillColor=none;" vertex="1" parent="1">
          <mxGeometry x="445" y="760" width="70" height="30" as="geometry" />
        </mxCell>
        <mxCell id="Cfh7iHXlZL_Zqh1E1O3E-64" value="&lt;font style=&quot;font-size: 18px;&quot;&gt;PC A&lt;/font&gt;" style="text;html=1;align=center;verticalAlign=middle;whiteSpace=wrap;rounded=0;fontFamily=Helvetica;fontSize=11;fontColor=#000000;labelBackgroundColor=default;fillColor=none;" vertex="1" parent="1">
          <mxGeometry x="131.17000000000002" y="730" width="70" height="30" as="geometry" />
        </mxCell>
        <mxCell id="Cfh7iHXlZL_Zqh1E1O3E-65" value="&lt;font style=&quot;font-size: 18px;&quot;&gt;PC B&lt;/font&gt;" style="text;html=1;align=center;verticalAlign=middle;whiteSpace=wrap;rounded=0;fontFamily=Helvetica;fontSize=11;fontColor=#000000;labelBackgroundColor=default;fillColor=none;" vertex="1" parent="1">
          <mxGeometry x="671.1700000000001" y="730" width="70" height="30" as="geometry" />
        </mxCell>
        <mxCell id="Cfh7iHXlZL_Zqh1E1O3E-67" style="edgeStyle=orthogonalEdgeStyle;shape=connector;rounded=0;orthogonalLoop=1;jettySize=auto;html=1;exitX=0.5;exitY=1;exitDx=0;exitDy=0;exitPerimeter=0;strokeColor=#028090;strokeWidth=3;align=center;verticalAlign=middle;fontFamily=Helvetica;fontSize=11;fontColor=#ffffff;labelBackgroundColor=default;startFill=0;endArrow=none;fillColor=#F45B69;" edge="1" parent="1" source="Cfh7iHXlZL_Zqh1E1O3E-66" target="Cfh7iHXlZL_Zqh1E1O3E-46">
          <mxGeometry relative="1" as="geometry" />
        </mxCell>
        <mxCell id="Cfh7iHXlZL_Zqh1E1O3E-66" value="" style="html=1;outlineConnect=0;fillColor=#F45B69;strokeColor=#6881B3;gradientColor=none;gradientDirection=north;strokeWidth=2;shape=mxgraph.networks.cloud;fontColor=#ffffff;align=center;verticalAlign=middle;fontFamily=Helvetica;fontSize=11;labelBackgroundColor=default;" vertex="1" parent="1">
          <mxGeometry x="280" y="530" width="90" height="50" as="geometry" />
        </mxCell>
        <mxCell id="Cfh7iHXlZL_Zqh1E1O3E-69" value="&lt;ol&gt;&lt;li&gt;Saat testing, konfigurasi dilakukan seperti biasa dengan ada interface yang menghadap ke API Server aplikasi yang tidak boleh di interupt accessnya&lt;/li&gt;&lt;li&gt;Ketika konfigurasi menggunakan DHCP pada PC A &amp;amp; B, maka peserta wajib mencantumkan alamat IP dan harus mengaktifkan DHCP reservation&lt;/li&gt;&lt;li&gt;Membuat bash script untuk menguji rute dari PC A ke PC B&lt;/li&gt;&lt;li&gt;Pengujian pertama dilakukan dengan path Router B ke Router D&lt;/li&gt;&lt;li&gt;Path Router B ke Router D akan diputus dengan menonaktifkan status port Router B yang menuju Router D&lt;/li&gt;&lt;li&gt;API menunggu beberapa detik kemudian menguji kembali rute&amp;nbsp; dari PC A ke PC B&lt;/li&gt;&lt;li&gt;Port Router B ke Router D akan diaktifkan kembali dan diuji kembali&lt;/li&gt;&lt;li&gt;API Server aplikasi akan meminta konfigurasi semua router kemudian di analisis menggunakan metode API Checking&lt;/li&gt;&lt;/ol&gt;" style="text;strokeColor=none;fillColor=none;html=1;whiteSpace=wrap;verticalAlign=middle;overflow=hidden;fontFamily=Helvetica;fontSize=25;fontColor=#000000;labelBackgroundColor=default;" vertex="1" parent="1">
          <mxGeometry x="850" y="210" width="510" height="800" as="geometry" />
        </mxCell>
      </root>
    </mxGraphModel>
  </diagram>
</mxfile>
